<svg height="500pt" viewBox="-125 0 500 500.82726" width="500pt" xmlns="http://www.w3.org/2000/svg"><path d="m5.960938 376.363281h57.570312l1.941406 17.628907c.335938 3.042968 2.898438 5.355468 5.964844 5.371093h16.265625l32.011719 97.4375c.859375 2.40625 3.128906 4.015625 5.683594 4.027344 2.550781.011719 4.835937-1.578125 5.714843-3.972656l32.015625-97.492188h16.265625c3.0625-.015625 5.628907-2.328125 5.960938-5.371093l1.941406-17.628907h57.574219c3.3125 0 5.542968-3.042969 5.542968-6.359375v-26.640625c.066407-14.457031-5.347656-28.402343-15.152343-39.027343l-38.847657-42.132813v-140.015625c0-30.859375-14.179687-91.160156-67.699218-121.410156-1.8125-1.035156-4.039063-1.035156-5.855469 0-53.519531 30.25-67.773437 90.550781-67.773437 121.410156 0 .121094.019531.273438.023437.394531.132813 2.1875.296875 28.300781.300781 139.875l-39.414062 41.714844c-10.109375 10.691406-15.691406 24.878906-15.582032 39.589844v26.246093c0 3.3125 2.230469 6.355469 5.546876 6.355469zm119.453124 99.519531-25.082031-76.519531h50.167969zm59-217.519531h-117c0-69.382812-.0625-111.101562-.1875-128h117.1875zm-58.554687-245.410156c44.242187 26.816406 57.574219 76.867187 58.664063 105.410156h-117.332032c1.09375-28.542969 14.421875-78.59375 58.667969-105.410156zm-113.445313 330.808594c-.101562-11.632813 4.296876-22.859375 12.28125-31.320313l39.757813-42.078125h123.363281l38.738282 42.121094c7.71875 8.421875 11.957031 19.457031 11.859374 30.878906v21h-49.792968l2.90625-26.523437c.3125-2.175782-.59375-4.34375-2.355469-5.65625-1.765625-1.3125-4.101563-1.558594-6.097656-.636719-1.996094.921875-3.328125 2.859375-3.472657 5.054687l-5.585937 50.761719h-97.199219l-5.582031-50.808593c-.371094-3.292969-3.339844-5.664063-6.632813-5.292969-3.292968.371093-5.664062 3.339843-5.296874 6.632812l2.902343 26.46875h-49.792969zm0 0"/></svg>